<svg width="80" height="80" viewBox="0 0 80 80" fill="none" xmlns="http://www.w3.org/2000/svg">
<rect width="80" height="80" rx="20" fill="#EAEAEA"/>
<g clip-path="url(#clip0)">
<path d="M53.4156 30.8887C52.1933 29.4694 50.6792 28.3306 48.9767 27.5498C47.2741 26.7691 45.4231 26.3649 43.55 26.3647H29.2498C27.0748 26.3649 24.9346 26.9099 23.0244 27.9499C21.1142 28.9899 19.4949 30.4917 18.3144 32.3184C17.1339 34.1451 16.4297 36.2384 16.2661 38.4072C16.1026 40.5759 16.4848 42.7512 17.3781 44.7342C19.8767 50.2084 23.6914 56.915 28.4247 61.9167C29.4515 63.0002 30.6882 63.8631 32.0595 64.4528C33.4308 65.0425 34.9078 65.3467 36.4005 65.3467C37.8932 65.3467 39.3703 65.0425 40.7415 64.4528C42.1128 63.8631 43.3496 63.0002 44.3763 61.9167C49.1106 56.9145 52.9239 50.2072 55.4217 44.7342C56.4445 42.4758 56.799 39.9717 56.4435 37.5181C56.088 35.0645 55.0373 32.764 53.4156 30.8887Z" fill="#DAF827"/>
<path d="M35.951 26.365C35.951 26.365 25.3425 26.5104 24.3856 17.8518C24.3856 17.8518 34.4194 16.7388 35.951 26.365Z" fill="#44C7B6"/>
<path d="M35.9509 26.365C35.9509 26.365 46.5596 26.5104 47.5165 17.8518C47.5165 17.8518 37.4828 16.7388 35.9509 26.365Z" fill="#44C7B6"/>
<path d="M38.2513 65.1903C36.4706 65.4956 34.6421 65.3565 32.9281 64.7854C31.214 64.2144 29.6675 63.229 28.4257 61.9167C23.6906 56.915 19.8764 50.2074 17.378 44.7342C16.4853 42.7511 16.1034 40.5759 16.2672 38.4072C16.431 36.2386 17.1353 34.1455 18.3158 32.3189C19.4963 30.4923 21.1154 28.9904 23.0254 27.9503C24.9354 26.9102 27.0754 26.3649 29.2503 26.3643H32.9534C30.7785 26.3649 28.6385 26.9102 26.7285 27.9503C24.8185 28.9904 23.1994 30.4923 22.0189 32.3189C20.8384 34.1455 20.1341 36.2386 19.9703 38.4072C19.8065 40.5759 20.1884 42.7511 21.0812 44.7342C23.5795 50.2074 27.3938 56.915 32.1288 61.9167C33.7597 63.6442 35.909 64.7934 38.2513 65.1903Z" fill="#F973A3"/>
<path d="M55.4215 44.7342C52.9231 50.205 49.1114 56.9126 44.3763 61.9167C43.1345 63.2297 41.5875 64.2155 39.873 64.7866C38.1584 65.3577 36.3293 65.4963 34.5482 65.1903C36.892 64.7956 39.0427 63.6461 40.6732 61.9167C45.4082 56.9126 49.22 50.205 51.7184 44.7342C52.6111 42.7511 52.993 40.5759 52.8292 38.4072C52.6654 36.2386 51.9611 34.1455 50.7806 32.3189C49.6001 30.4923 47.981 28.9904 46.071 27.9503C44.161 26.9102 42.021 26.3649 39.8462 26.3643H43.5493C45.7241 26.3649 47.8642 26.9102 49.7742 27.9503C51.6842 28.9904 53.3033 30.4923 54.4838 32.3189C55.6642 34.1455 56.3685 36.2386 56.5323 38.4072C56.6961 40.5759 56.3142 42.7511 55.4215 44.7342Z" fill="#EA2A6A"/>
<path d="M59.7229 30.9902C58.4171 29.4737 56.8012 28.2548 54.9843 27.4158C53.1674 26.5769 51.1917 26.1373 49.1905 26.1268C52.0241 24.4955 53.6969 21.9642 54.0569 18.7057C54.0856 18.4455 54.0099 18.1845 53.8463 17.9801C53.6827 17.7758 53.4446 17.6447 53.1844 17.6158C53.0972 17.6062 46.2181 16.9211 42.5579 21.8667C43.0344 17.755 44.6791 11.9243 49.7933 7.329C49.8913 7.24276 49.9713 7.13794 50.0285 7.02061C50.0858 6.90327 50.1192 6.77575 50.1268 6.64542C50.1345 6.51509 50.1162 6.38454 50.0731 6.26131C50.0299 6.13809 49.9628 6.02465 49.8755 5.92754C49.7883 5.83044 49.6826 5.7516 49.5647 5.69559C49.4468 5.63958 49.3189 5.60751 49.1885 5.60124C49.0581 5.59497 48.9277 5.61461 48.805 5.65905C48.6822 5.70348 48.5695 5.77181 48.4733 5.86009C42.713 11.0361 40.9779 17.4951 40.5284 21.9563C36.886 16.9124 29.9236 17.6059 29.8357 17.6158C29.5755 17.6446 29.3373 17.7757 29.1737 17.9801C29.01 18.1845 28.9342 18.4455 28.963 18.7057C29.3254 21.9855 31.0185 24.527 33.8867 26.1567C31.6293 26.3049 29.4415 26.9978 27.5103 28.176C25.5792 29.3542 23.9622 30.9827 22.7977 32.9222C21.6332 34.8617 20.9559 37.0544 20.8237 39.3127C20.6915 41.571 21.1084 43.8278 22.0387 45.8899C23.8786 49.9206 27.7837 57.5478 33.2663 63.3405C34.3845 64.5229 35.7322 65.4648 37.2269 66.1085C38.7216 66.7522 40.3319 67.0842 41.9594 67.0842C43.5868 67.0842 45.1971 66.7522 46.6918 66.1085C48.1865 65.4648 49.5342 64.5229 50.6525 63.3405C56.1331 57.5503 60.0386 49.9221 61.8788 45.8904C62.976 43.4594 63.356 40.7655 62.9741 38.1259C62.5921 35.4862 61.4642 33.0105 59.7229 30.9902ZM51.9152 19.5402C50.7036 24.7206 45.2249 25.8268 42.7401 26.0609C44.2942 20.2739 49.622 19.5678 51.9152 19.5402ZM31.1051 19.5402C33.3996 19.5678 38.7262 20.2751 40.28 26.0606C37.7959 25.8268 32.3166 24.7206 31.1051 19.5404V19.5402ZM60.0823 45.0695C58.2927 48.9896 54.503 56.3996 49.2179 61.9822C48.2841 62.9692 47.1589 63.7554 45.9109 64.2928C44.6629 64.8301 43.3185 65.1072 41.9597 65.1072C40.601 65.1072 39.2566 64.8301 38.0086 64.2928C36.7606 63.7554 35.6354 62.9692 34.7016 61.9822C29.4153 56.3969 25.625 48.9882 23.8359 45.069C23.0113 43.2364 22.6588 41.2264 22.8106 39.2226C22.9623 37.2187 23.6135 35.2848 24.7046 33.5972C25.7958 31.9097 27.2922 30.5222 29.0573 29.5615C30.8223 28.6008 32.7999 28.0975 34.8095 28.0974H49.1097C50.8408 28.0969 52.5516 28.4702 54.1251 29.1917C55.6987 29.9133 57.0979 30.9661 58.2271 32.2782C59.7225 34.0122 60.6916 36.1373 61.0202 38.4034C61.3489 40.6695 61.0235 42.9823 60.0823 45.0698V45.0695Z" fill="#5F266D"/>
<path d="M33.1653 37.2088C33.9617 37.2088 34.6073 36.235 34.6073 35.0336C34.6073 33.8323 33.9617 32.8584 33.1653 32.8584C32.3689 32.8584 31.7233 33.8323 31.7233 35.0336C31.7233 36.235 32.3689 37.2088 33.1653 37.2088Z" fill="#5F266D"/>
<path d="M41.9859 37.2088C42.7823 37.2088 43.4279 36.235 43.4279 35.0336C43.4279 33.8323 42.7823 32.8584 41.9859 32.8584C41.1896 32.8584 40.5439 33.8323 40.5439 35.0336C40.5439 36.235 41.1896 37.2088 41.9859 37.2088Z" fill="#5F266D"/>
<path d="M50.8065 37.2088C51.6029 37.2088 52.2485 36.235 52.2485 35.0336C52.2485 33.8323 51.6029 32.8584 50.8065 32.8584C50.0101 32.8584 49.3645 33.8323 49.3645 35.0336C49.3645 36.235 50.0101 37.2088 50.8065 37.2088Z" fill="#5F266D"/>
<path d="M33.1653 53.2862C33.9617 53.2862 34.6073 52.3123 34.6073 51.111C34.6073 49.9097 33.9617 48.9358 33.1653 48.9358C32.3689 48.9358 31.7233 49.9097 31.7233 51.111C31.7233 52.3123 32.3689 53.2862 33.1653 53.2862Z" fill="#5F266D"/>
<path d="M41.9859 53.2862C42.7823 53.2862 43.4279 52.3123 43.4279 51.111C43.4279 49.9097 42.7823 48.9358 41.9859 48.9358C41.1896 48.9358 40.5439 49.9097 40.5439 51.111C40.5439 52.3123 41.1896 53.2862 41.9859 53.2862Z" fill="#5F266D"/>
<path d="M50.8065 53.2862C51.6029 53.2862 52.2485 52.3123 52.2485 51.111C52.2485 49.9097 51.6029 48.9358 50.8065 48.9358C50.0101 48.9358 49.3645 49.9097 49.3645 51.111C49.3645 52.3123 50.0101 53.2862 50.8065 53.2862Z" fill="#5F266D"/>
<path d="M37.3943 44.8275C38.1907 44.8275 38.8363 43.8536 38.8363 42.6523C38.8363 41.4509 38.1907 40.4771 37.3943 40.4771C36.5979 40.4771 35.9523 41.4509 35.9523 42.6523C35.9523 43.8536 36.5979 44.8275 37.3943 44.8275Z" fill="#5F266D"/>
<path d="M46.2148 44.8275C47.0112 44.8275 47.6568 43.8536 47.6568 42.6523C47.6568 41.4509 47.0112 40.4771 46.2148 40.4771C45.4184 40.4771 44.7728 41.4509 44.7728 42.6523C44.7728 43.8536 45.4184 44.8275 46.2148 44.8275Z" fill="#5F266D"/>
<path d="M55.0357 44.8275C55.8321 44.8275 56.4777 43.8536 56.4777 42.6523C56.4777 41.4509 55.8321 40.4771 55.0357 40.4771C54.2394 40.4771 53.5938 41.4509 53.5938 42.6523C53.5938 43.8536 54.2394 44.8275 55.0357 44.8275Z" fill="#5F266D"/>
<path d="M28.8818 44.8275C29.6782 44.8275 30.3238 43.8536 30.3238 42.6523C30.3238 41.4509 29.6782 40.4771 28.8818 40.4771C28.0854 40.4771 27.4398 41.4509 27.4398 42.6523C27.4398 43.8536 28.0854 44.8275 28.8818 44.8275Z" fill="#5F266D"/>
<path d="M37.5483 55.9272C36.7521 55.9272 36.1066 56.9012 36.1066 58.1025C36.1066 59.3038 36.7521 60.2777 37.5483 60.2777C38.3445 60.2777 38.9903 59.3038 38.9903 58.1025C38.9903 56.9012 38.3447 55.9272 37.5483 55.9272Z" fill="#5F266D"/>
<path d="M46.3691 55.9272C45.5727 55.9272 44.9271 56.9012 44.9271 58.1025C44.9271 59.3038 45.5727 60.2777 46.3691 60.2777C47.1655 60.2777 47.8111 59.3038 47.8111 58.1025C47.8111 56.9012 47.1655 55.9272 46.3691 55.9272Z" fill="#5F266D"/>
<path d="M26.39 39.7669C26.4104 39.5058 26.3262 39.2473 26.156 39.0483C25.9857 38.8492 25.7434 38.726 25.4823 38.7056C25.2212 38.6853 24.9627 38.7695 24.7636 38.9397C24.5646 39.1099 24.4413 39.3523 24.421 39.6134C24.375 40.2071 24.3887 40.8039 24.4619 41.3948C24.494 41.6548 24.628 41.8913 24.8345 42.0525C25.0409 42.2136 25.303 42.2861 25.5629 42.2541C25.8228 42.222 26.0594 42.088 26.2205 41.8816C26.3817 41.6751 26.4542 41.4131 26.4221 41.1532C26.3651 40.6933 26.3543 40.2289 26.39 39.7669Z" fill="#5F266D"/>
<path d="M29.3951 31.5313C27.8569 32.636 26.5746 34.059 25.6354 35.7035C25.5723 35.8168 25.5321 35.9415 25.5171 36.0703C25.5021 36.1992 25.5127 36.3297 25.5482 36.4545C25.5837 36.5793 25.6434 36.6958 25.724 36.7975C25.8045 36.8992 25.9044 36.984 26.0177 37.0471C26.1311 37.1102 26.2557 37.1503 26.3846 37.1652C26.5135 37.1801 26.644 37.1695 26.7687 37.1339C26.8935 37.0984 27.01 37.0386 27.1117 36.9579C27.2133 36.8773 27.2981 36.7775 27.3611 36.6641C28.1518 35.2946 29.2197 34.1053 30.4964 33.1723C30.7102 33.0248 30.8574 32.7991 30.9059 32.5439C30.9545 32.2887 30.9005 32.0247 30.7558 31.809C30.611 31.5933 30.3871 31.4434 30.1325 31.3916C29.878 31.3399 29.6133 31.3905 29.3958 31.5326L29.3951 31.5313Z" fill="#5F266D"/>
</g>
<defs>
<clipPath id="clip0">
<rect x="4.7998" y="4" width="63.2" height="63.2" rx="20" fill="white"/>
</clipPath>
</defs>
</svg>
