<svg width="27" height="27" viewBox="0 0 27 27" fill="none" xmlns="http://www.w3.org/2000/svg">
<path d="M25.9346 19.1413H8.01182L8.91171 17.103L23.8639 17.0729C24.3695 17.0729 24.8029 16.6713 24.8932 16.1157L26.9639 3.22648C27.0181 2.88843 26.9368 2.54035 26.7382 2.27594C26.64 2.14581 26.5175 2.04099 26.3793 1.96874C26.241 1.8965 26.0903 1.85856 25.9376 1.85757L6.91629 1.78728L6.75376 0.937151C6.65143 0.394942 6.21202 0 5.71241 0H1.06242C0.780651 0 0.51042 0.124477 0.311177 0.346047C0.111934 0.567618 0 0.868132 0 1.18148C0 1.49483 0.111934 1.79534 0.311177 2.01691C0.51042 2.23848 0.780651 2.36296 1.06242 2.36296H4.85163L5.56192 6.11826L7.31056 15.5333L5.0593 19.6199C4.94239 19.7954 4.87197 20.0038 4.85602 20.2214C4.84006 20.4391 4.8792 20.6574 4.96901 20.8516C5.14959 21.2499 5.51377 21.5009 5.91707 21.5009H7.80716C7.40421 22.0961 7.18657 22.821 7.18716 23.566C7.18716 25.4604 8.57162 27 10.2751 27C11.9786 27 13.3631 25.4604 13.3631 23.566C13.3631 22.8196 13.1403 22.0933 12.7431 21.5009H17.5917C17.1887 22.0961 16.9711 22.821 16.9717 23.566C16.9717 25.4604 18.3561 27 20.0596 27C21.7631 27 23.1476 25.4604 23.1476 23.566C23.1476 22.8196 22.9249 22.0933 22.5276 21.5009H25.9376C26.5215 21.5009 27 20.9721 27 20.3194C26.9983 20.0064 26.8852 19.7069 26.6856 19.4862C26.486 19.2655 26.2161 19.1415 25.9346 19.1413V19.1413ZM7.35871 4.11677L24.6886 4.18036L22.9911 14.7501L9.37822 14.7769L7.35871 4.11677ZM10.2751 24.6237C9.75142 24.6237 9.32404 24.1484 9.32404 23.566C9.32404 22.9836 9.75142 22.5084 10.2751 22.5084C10.7988 22.5084 11.2262 22.9836 11.2262 23.566C11.2262 23.8465 11.126 24.1155 10.9476 24.3139C10.7693 24.5122 10.5273 24.6237 10.2751 24.6237V24.6237ZM20.0596 24.6237C19.5359 24.6237 19.1086 24.1484 19.1086 23.566C19.1086 22.9836 19.5359 22.5084 20.0596 22.5084C20.5833 22.5084 21.0107 22.9836 21.0107 23.566C21.0107 23.8465 20.9105 24.1155 20.7321 24.3139C20.5538 24.5122 20.3119 24.6237 20.0596 24.6237V24.6237Z" fill="#9FA4AE"/>
</svg>
