<svg width="22" height="22" viewBox="0 0 22 22" fill="none" xmlns="http://www.w3.org/2000/svg">
<path d="M7.57968 22C8.41692 22 9.09564 21.2965 9.09564 20.4286C9.09564 19.5607 8.41692 18.8572 7.57968 18.8572C6.74244 18.8572 6.06372 19.5607 6.06372 20.4286C6.06372 21.2965 6.74244 22 7.57968 22Z" fill="#9FA4AE"/>
<path d="M18.1916 22C19.0289 22 19.7076 21.2965 19.7076 20.4286C19.7076 19.5607 19.0289 18.8572 18.1916 18.8572C17.3544 18.8572 16.6757 19.5607 16.6757 20.4286C16.6757 21.2965 17.3544 22 18.1916 22Z" fill="#9FA4AE"/>
<path d="M21.2234 3.92869H4.41144L3.78989 0.628725C3.75446 0.448582 3.6592 0.287023 3.5207 0.172173C3.38221 0.0573225 3.20924 -0.00354707 3.03191 0.000159843H0V1.57157H2.41037L5.30585 16.6571C5.34129 16.8373 5.43654 16.9988 5.57504 17.1137C5.71354 17.2285 5.8865 17.2894 6.06383 17.2857H19.7074V15.7143H6.68537L6.06383 12.5715H19.7074C19.8827 12.5759 20.0539 12.5173 20.1921 12.4055C20.3303 12.2938 20.4269 12.1359 20.4654 11.9586L21.9814 4.88726C22.0068 4.77068 22.0062 4.64963 21.9796 4.53332C21.9531 4.41701 21.9013 4.30851 21.8282 4.21608C21.7551 4.12365 21.6627 4.04972 21.5579 3.99992C21.4531 3.95012 21.3387 3.92576 21.2234 3.92869ZM19.1011 11.0001H5.7758L4.71463 5.50011H20.2759L19.1011 11.0001Z" fill="#9FA4AE"/>
</svg>
