<svg width="19" height="19" viewBox="0 0 19 19" fill="none" xmlns="http://www.w3.org/2000/svg">
<path d="M6.64269 15.212L8.5406 16.2357V9.48957C8.53955 9.22101 8.44071 8.96366 8.2654 8.77299L2.11617 2.04737H16.8819L10.7422 8.77299C10.5669 8.96366 10.468 9.22101 10.467 9.48957L10.4385 17.4027L12.3364 18.4263V9.90928L18.5805 3.07106C18.8303 2.7977 18.973 2.43115 18.9791 2.04737V1.02369C18.9791 0.752188 18.8791 0.491809 18.7012 0.299831C18.5232 0.107853 18.2818 0 18.0302 0H0.948955C0.697277 0 0.455906 0.107853 0.277943 0.299831C0.0999791 0.491809 0 0.752188 0 1.02369V2.04737C0.00607094 2.43115 0.148782 2.7977 0.398561 3.07106L6.64269 9.90928V15.212Z" fill="#54575F"/>
</svg>
