<svg width="32" height="23" viewBox="0 0 32 23" fill="none" xmlns="http://www.w3.org/2000/svg">
<path fill-rule="evenodd" clip-rule="evenodd" d="M1.23077 0C0.904349 0 0.591298 0.12967 0.360484 0.360484C0.12967 0.591298 0 0.904349 0 1.23077C0 1.55719 0.12967 1.87024 0.360484 2.10105C0.591298 2.33187 0.904349 2.46154 1.23077 2.46154H30.7692C31.0957 2.46154 31.4087 2.33187 31.6395 2.10105C31.8703 1.87024 32 1.55719 32 1.23077C32 0.904349 31.8703 0.591298 31.6395 0.360484C31.4087 0.12967 31.0957 0 30.7692 0H1.23077ZM0 11.0769C0 10.7505 0.12967 10.4375 0.360484 10.2066C0.591298 9.97582 0.904349 9.84615 1.23077 9.84615H30.7692C31.0957 9.84615 31.4087 9.97582 31.6395 10.2066C31.8703 10.4375 32 10.7505 32 11.0769C32 11.4033 31.8703 11.7164 31.6395 11.9472C31.4087 12.178 31.0957 12.3077 30.7692 12.3077H1.23077C0.904349 12.3077 0.591298 12.178 0.360484 11.9472C0.12967 11.7164 0 11.4033 0 11.0769V11.0769ZM0 20.9231C0 20.5967 0.12967 20.2836 0.360484 20.0528C0.591298 19.822 0.904349 19.6923 1.23077 19.6923H30.7692C31.0957 19.6923 31.4087 19.822 31.6395 20.0528C31.8703 20.2836 32 20.5967 32 20.9231C32 21.2495 31.8703 21.5625 31.6395 21.7934C31.4087 22.0242 31.0957 22.1538 30.7692 22.1538H1.23077C0.904349 22.1538 0.591298 22.0242 0.360484 21.7934C0.12967 21.5625 0 21.2495 0 20.9231V20.9231Z" fill="#9FA4AE"/>
</svg>
