<svg width="18" height="18" viewBox="0 0 18 18" fill="none" xmlns="http://www.w3.org/2000/svg">
<path fill-rule="evenodd" clip-rule="evenodd" d="M0.692308 0C0.508696 0 0.332605 0.105357 0.202772 0.292893C0.0729393 0.48043 0 0.734784 0 1C0 1.26522 0.0729393 1.51957 0.202772 1.70711C0.332605 1.89464 0.508696 2 0.692308 2H17.3077C17.4913 2 17.6674 1.89464 17.7972 1.70711C17.9271 1.51957 18 1.26522 18 1C18 0.734784 17.9271 0.48043 17.7972 0.292893C17.6674 0.105357 17.4913 0 17.3077 0H0.692308ZM0 9C0 8.73478 0.0729393 8.48043 0.202772 8.29289C0.332605 8.10536 0.508696 8 0.692308 8H17.3077C17.4913 8 17.6674 8.10536 17.7972 8.29289C17.9271 8.48043 18 8.73478 18 9C18 9.26522 17.9271 9.51957 17.7972 9.70711C17.6674 9.89464 17.4913 10 17.3077 10H0.692308C0.508696 10 0.332605 9.89464 0.202772 9.70711C0.0729393 9.51957 0 9.26522 0 9ZM0 17C0 16.7348 0.0729393 16.4804 0.202772 16.2929C0.332605 16.1054 0.508696 16 0.692308 16H17.3077C17.4913 16 17.6674 16.1054 17.7972 16.2929C17.9271 16.4804 18 16.7348 18 17C18 17.2652 17.9271 17.5196 17.7972 17.7071C17.6674 17.8946 17.4913 18 17.3077 18H0.692308C0.508696 18 0.332605 17.8946 0.202772 17.7071C0.0729393 17.5196 0 17.2652 0 17Z" fill="#9FA4AE"/>
</svg>
