<svg width="24" height="24" viewBox="0 0 24 24" fill="none" xmlns="http://www.w3.org/2000/svg">
<path d="M4.25 3H19.75C20.5801 2.99995 21.3788 3.31755 21.9822 3.88767C22.5856 4.45779 22.948 5.23719 22.995 6.066L23 6.25V17.75C23.0001 18.5801 22.6824 19.3788 22.1123 19.9822C21.5422 20.5856 20.7628 20.948 19.934 20.995L19.75 21H4.25C3.41986 21.0001 2.62117 20.6824 2.01777 20.1123C1.41437 19.5422 1.052 18.7628 1.005 17.934L1 17.75V6.25C0.999946 5.41986 1.31755 4.62117 1.88767 4.01777C2.45779 3.41437 3.23719 3.052 4.066 3.005L4.25 3H19.75H4.25ZM21.5 8.905L12.346 13.665C12.2573 13.7111 12.1603 13.739 12.0607 13.747C11.9611 13.7551 11.8609 13.7432 11.766 13.712L11.654 13.665L2.5 8.905V17.75C2.50002 18.1892 2.66517 18.6123 2.96268 18.9354C3.26019 19.2585 3.6683 19.4579 4.106 19.494L4.25 19.5H19.75C20.1893 19.5 20.6126 19.3347 20.9357 19.037C21.2588 18.7392 21.4581 18.3309 21.494 17.893L21.5 17.75V8.905ZM19.75 4.5H4.25C3.81081 4.50002 3.38768 4.66517 3.06461 4.96268C2.74154 5.26019 2.54214 5.6683 2.506 6.106L2.5 6.25V7.214L12 12.154L21.5 7.214V6.25C21.5 5.81065 21.3347 5.38739 21.037 5.06429C20.7392 4.74119 20.3309 4.5419 19.893 4.506L19.75 4.5Z" fill="#9FA4AE"/>
</svg>
