<svg width="24" height="23" viewBox="0 0 24 23" fill="none" xmlns="http://www.w3.org/2000/svg">
<path d="M18.4867 22.6266C18.2625 22.626 18.039 22.6014 17.82 22.5533C13.6511 21.6909 9.81043 19.6689 6.74003 16.72C3.73514 13.7646 1.65109 10.0017 0.740027 5.88664C0.632602 5.37378 0.658968 4.8419 0.81659 4.34218C0.974213 3.84246 1.25779 3.39172 1.64003 3.03331L4.30669 0.46664C4.4429 0.337832 4.60473 0.239193 4.78164 0.177161C4.95854 0.11513 5.14654 0.0910999 5.33336 0.10664C5.52707 0.126849 5.714 0.189249 5.88101 0.289452C6.04801 0.389656 6.19104 0.52523 6.30003 0.68664L9.63336 5.61331C9.75836 5.80447 9.8187 6.03071 9.8055 6.25873C9.7923 6.48675 9.70625 6.70451 9.56003 6.87997L7.88669 8.87997C8.55313 10.3549 9.49692 11.688 10.6667 12.8066C11.8289 13.9658 13.2026 14.8914 14.7134 15.5333L16.7867 13.8866C16.9608 13.749 17.1727 13.6677 17.3942 13.6534C17.6157 13.6391 17.8363 13.6925 18.0267 13.8066L23.06 17.06C23.2328 17.1631 23.3799 17.304 23.4905 17.4721C23.601 17.6401 23.6721 17.8311 23.6984 18.0305C23.7247 18.2299 23.7055 18.4328 23.6423 18.6237C23.5791 18.8147 23.4735 18.9889 23.3334 19.1333L20.7334 21.7066C20.438 22.0005 20.0875 22.2331 19.7019 22.391C19.3163 22.5489 18.9033 22.629 18.4867 22.6266ZM5.22669 1.42664L2.56003 3.99331C2.345 4.19367 2.18582 4.44656 2.09815 4.7271C2.01048 5.00763 1.99735 5.30615 2.06003 5.59331C2.90717 9.45473 4.85451 12.9882 7.66669 15.7666C10.5562 18.541 14.1704 20.4429 18.0934 21.2533C18.3903 21.3154 18.698 21.3028 18.9889 21.2167C19.2798 21.1306 19.5447 20.9737 19.76 20.76L22.36 18.1866L17.5 15.0466L15.2734 16.82C15.1881 16.8874 15.0877 16.933 14.9808 16.9528C14.8739 16.9725 14.7638 16.9659 14.66 16.9333C12.8112 16.2521 11.1357 15.1708 9.75336 13.7666C8.3236 12.4314 7.21378 10.7906 6.50669 8.96664C6.47678 8.85622 6.47579 8.73995 6.50381 8.62903C6.53183 8.51812 6.58792 8.41627 6.66669 8.33331L8.46669 6.17997L5.22669 1.42664Z" fill="#9FA4AE"/>
</svg>
