<svg width="19" height="19" viewBox="0 0 19 19" fill="none" xmlns="http://www.w3.org/2000/svg">
<path d="M8.1194 15.7659C9.92087 15.7655 11.6704 15.18 13.0895 14.1026L17.5511 18.4342L18.9862 17.0409L14.5246 12.7092C15.6349 11.3314 16.2384 9.63238 16.2388 7.88293C16.2388 3.53648 12.5962 0 8.1194 0C3.64257 0 0 3.53648 0 7.88293C0 12.2294 3.64257 15.7659 8.1194 15.7659ZM8.1194 1.97073C11.4778 1.97073 14.209 4.62235 14.209 7.88293C14.209 11.1435 11.4778 13.7951 8.1194 13.7951C4.76101 13.7951 2.02985 11.1435 2.02985 7.88293C2.02985 4.62235 4.76101 1.97073 8.1194 1.97073Z" fill="#D8DDE7"/>
</svg>
